<svg id="Layer_1" xmlns="http://www.w3.org/2000/svg" width="83.533" height="78.215" viewBox="0 0 83.533 78.215">
  <g id="XMLID_1_">
    <path fill="#FFF200" d="M41.925 64.47l12.63-38.79s27.64.9 28.69 3.96c1.04 3.05-20.65 19.94-20.65 19.94s7.86 25.99 5.03 28c-2.83 2-25.7-13.11-25.7-13.11z"/>
    <path fill="#EC008C" d="M54.555 25.68l-12.63 38.79-13-38.67S38.415.26 41.625.25c3.2 0 12.93 25.43 12.93 25.43z"/>
    <path fill="#00AEEF" d="M28.925 25.8l13 38.67s-22.99 15.13-25.58 13.35c-2.58-1.79 4.77-28.04 4.77-28.04S-.616 32.71.274 30.03c.9-2.68 28.65-4.23 28.65-4.23z"/>
  </g>
</svg>
