<svg xmlns="http://www.w3.org/2000/svg" width="90" height="90" viewBox="0 0 90 90">
  <g id="wnl" fill="#FFF">
    <g id="lore">
      <path d="M66.46 61.532c-.242 2.383-1.58 4.39-3.51 5.22-.696.352-1.5.484-2.303.484-3.428 0-5.356-2.276-6.668-5.09-.965-2.14-1.715-3.293-3.082-3.508h-1.794c.938-.213 1.152-1.632 1.152-1.713v-9.962c0-.91-.348-1.66-1.045-1.847h8.652v2.812s-.32-.643-1.232-.643h-3.938l.028 3.963h.828c.162 0 .35-.105.644-.427v2.438c-.294-.375-.456-.456-.616-.456h-.855l-.027 3.883c1.93.908 2.813 3.026 3.51 4.498.962 2.303 3.078 4.606 5.783 3.4 1.338-.614 1.98-2.09 2.09-3.294.133-1.69-.564-3.775-2.545-4.26-1.098-.24-2.196-.105-3.238.538-.35.24-.75.938-.83 1.606L55.48 56.55c.214-.215.535-.215.776-.402 1.767-1.526 3.775-1.956 5.892-1.42 2.864.698 4.604 3.51 4.31 6.804z"/>
      <path stroke="#FFF" stroke-miterlimit="10" d="M77.24 57.723s-.64.32-1.154 1.26l-2.995 4.6c-1.794 2.738-4.383 4.79-7.46 5.924-1.67.6-3.402.92-5.135.92-1.476 0-2.93-.213-4.362-.663l-.385-.128c-5.09-1.71-9.132-5.774-10.8-10.886l-1.84-5.582c-.234.235-.47.49-.685.77-.534.6-1.882 1.926-1.583 2.846.107.385.236-.278.643-.3.727-.063.94 1.177.256 1.39-.322.087-.708-.106-.9-.385-.385-.492-.534-1.156-.534-1.775.042-1.797 3.186-5.54 3.764-6.48.513-.855.662-1.903.662-2.93 0-3.72-3.015-6.758-6.737-6.758-1.946 0-4.79.94-5.068 3.165v.022l-2.63-1.52c.684-.277 1.09-.918 1.603-1.41.557-.493 1.155-.942 1.818-1.306 1.305-.728 2.78-1.133 4.276-1.133 4.918 0 8.94 4.02 8.94 8.94 0 1.945-.748 3.335-1.753 4.575-.128.15-.235.3-.363.45l2.202 6.758c1.454 4.448 4.982 7.998 9.41 9.473.128.045.234.088.342.11 5.39 1.667 11.355-.515 14.5-5.284l1.882-2.907c.342-.536.405-1.178.19-1.756h3.897zM38.77 42.73v18.906c0 .276.192.77.812.92h-3.806c.684-.172.813-.685.813-.984V42.646c0-.3-.278-.77-.75-.876l3.743-.022c-.663.17-.792.79-.812.983z"/>
      <path d="M26.802 45.084c-2.13 0-3.868 1.71-3.868 3.84V52.4c0 2.13 1.738 3.868 3.868 3.868s3.84-1.738 3.84-3.87v-3.474c0-2.13-1.71-3.84-3.84-3.84zm1.233 7.315c0 .672-.56 1.233-1.233 1.233s-1.233-.56-1.233-1.234v-3.476c0-.673.56-1.233 1.232-1.233s1.233.56 1.233 1.234V52.4z"/>
      <path d="M19.46 46.978v-5.723c-.057-.56-.282-1.094-1.15-1.29h4.736c-.84.196-1.037.59-1.148 1.206v15.434h10.118l-.14-.393-.645-2.746c-.335-1.513 1.29-2.886 2.663-2.353 1.093.42 1.12 1.99-.084 1.99-.506 0-.897-.532-.337-1.092 0-.028-.028-.057-.055-.028-.673.25-.59.756-.337 1.402l2.214 5.55H18.31c1.177-.337 1.15-1.514 1.15-1.514v-10.44z"/>
    </g>
    <path id="and" d="M22.606 42.448H16.736v-3.24c0-.068.185-1.24 1.04-1.447h-4.312c.855.208 1.115 1.346 1.115 1.45l-.038 3.2H9.52V44.478l5.006 4.618h2.21v-1.377-3.24h5.872c.11 0 1.337.174 1.56.966V41.45c-.223.757-1.45.998-1.56.998zm-8.065 4.638l-2.813-2.606h2.814v2.606z"/>
    <g id="whimsy" stroke="#FFF" stroke-width=".425" stroke-miterlimit="10">
      <path d="M12.608 18.51h.09c.055 0 .14.004.26.01v.007c.003 0 .005-.002.005-.006.363.036.612.075.748.118.364.12.697.285 1.002.498.19.124.414.316.667.578.4.472.602.933.602 1.38v.112c0 .552-.13.97-.393 1.25-.01.032-.086.116-.233.255-.23.196-.557.408-.985.637-.352.193-.723.464-1.112.81-.368.346-.596.596-.682.747-.18.264-.31.51-.393.735-.144.384-.216.732-.216 1.044 0 .564.044 1.02.135 1.37.237.974.58 1.868 1.03 2.686.187.364.434.74.74 1.128.235.292.527.486.875.583.113.032.228.048.343.048.274 0 .54-.144.8-.43.232-.296.35-.52.35-.667.06-.22.142-.366.243-.437.072-.035.19-.054.35-.054.23 0 .388.053.472.157.055.11.115.376.18.8.03.14.052 1.226.067 3.253.043.71.112 1.107.207 1.195.024.04.062.064.11.074.104 0 .21-.114.32-.343.062-.143.124-.367.184-.674.05-.358.113-.962.192-1.81.066-.472.13-.778.194-.918.122-.253.235-.38.34-.38.564.105.846.164.846.18.117.25.246 1.02.386 2.312.125 1.402.22 2.268.287 2.596.023.082.043.124.06.126h.01c.08 0 .16-.938.237-2.813.042-.49.097-.902.16-1.238.105-.456.216-.81.334-1.06.32-.63.733-.943 1.24-.943h.095c.04 0 .335.037.89.11.286.036.576.054.868.054.62 0 1.142-.104 1.566-.317.673-.277 1.06-.417 1.16-.417h.038c.01.002.02.015.03.037-.026.093-.11.183-.252.27-.908.508-1.74.763-2.496.763h-.126c-.245 0-.604-.035-1.075-.105h-.232c-.51 0-.913.24-1.208.715-.088.147-.17.34-.244.577-.084.293-.168.74-.253 1.34-.124 1.23-.186 2.16-.186 2.79-.017.668-.043 1.053-.08 1.156 0 .104-.067.288-.202.55-.204.31-.49.467-.86.467-.295 0-.49-.148-.586-.445-.11-.52-.243-2.21-.4-5.072-.024-.518-.044-.81-.06-.875-.025-.05-.038-.083-.038-.102H19c-.09.41-.202 1.25-.334 2.522-.05.27-.11.51-.186.717-.236.587-.612.882-1.127.882-.146 0-.324-.03-.534-.09-.128-.092-.233-.28-.313-.563-.06-.17-.127-.572-.2-1.202-.108-1.16-.16-2.066-.16-2.722V32.4c-.283.296-.595.444-.937.444-.324 0-.69-.13-1.097-.386-.3-.247-.523-.48-.674-.704-.462-.633-.885-1.43-1.27-2.39-.17-.43-.32-.937-.452-1.513-.084-.406-.126-.84-.126-1.296 0-.805.284-1.555.853-2.246.307-.336.53-.555.673-.658.37-.305.766-.57 1.187-.793.258-.13.517-.31.778-.535.196-.21.325-.402.386-.578.07-.164.104-.414.104-.75 0-.37-.118-.697-.355-.985-.194-.246-.41-.457-.646-.63-.204-.147-.41-.264-.615-.35-.34-.157-.746-.235-1.218-.235-.44 0-.69.136-.757.408-.004.004-.006.023-.006.06v.073c0 .14.087.266.265.377l.238.067c.04.035.06.068.06.096 0 .068-.043.107-.128.117h-.02c-.147 0-.32-.105-.52-.317-.124-.17-.186-.325-.186-.466v-.043c0-.303.172-.503.518-.603.116-.036.25-.053.4-.053z"/>
      <path d="M37.745 31.02c-.062.093-.437.416-1.123.972-.687.555-1.446 1.204-2.28 1.947-.833.743-1.542 1.65-2.128 2.718-.586 1.068-.977 1.75-1.173 2.04-.195.294-.582.364-1.162.214-.58-.152-.87-1.598-.874-4.338-.003-2.74-.144-4.316-.423-4.73s-.5.037-.667 1.35c-.027.225-.052.48-.074.77-.01.117-.018.243-.026.378-.005.902-.013 1.424-.02 1.564-.03.522-.054.813-.075.867-.144.375-.297.55-.465.52-.158-.024-.284-.22-.376-.582-.108-.42-.164-1.94-.168-4.56-.004-1.52.04-2.645.133-3.376.006-.058.018-.178.034-.36l.005-.06.006-.064c.005-.054.008-.1.01-.137l.028-.303c.054-.558.112-1.035.176-1.434.208-1.264.496-1.896.865-1.896-.005 0 .002.005.02.013l.065.024h.003c.498.24.663.766.494 1.576-.053.258-.3 1.596-.74 4.016-.032.93-.022 1.616.03 2.06.054-.585.474-.88 1.26-.882s1.168 2.938 1.146 8.824c.167.72.524.48 1.07-.724.547-1.202 1.26-2.237 2.14-3.105s1.748-1.647 2.605-2.34l1.287-1.035.244-.035c.163-.023.213.012.15.106zm-9.722-8.255c-.076.06-.11.432-.102 1.12l-.224 3.39c.327-1.577.537-2.55.63-2.922.086-.342.124-.608.11-.8-.014-.232-.082-.436-.206-.608-.043-.06-.088-.108-.133-.146-.038-.03-.063-.043-.074-.035zm-.055-.244c.103.04.04.02.02.014-.017-.01-.024-.013-.02-.013z"/>
      <path d="M46.23 31.025c.497-.11.07.312-1.278 1.264s-2.73 1.914-4.14 2.893c-1.41.977-2.392 1.256-2.944.838-.202-.23-.384-.645-.546-1.24-.128-.466-.225-1.038-.29-1.718-.025-.262-.043-.522-.057-.78-.012-.22-.008-.464.01-.732s.114-.6.28-.993c.064-.152.166-.3.306-.445.146-.147.29-.25.434-.31.163-.064.297-.06.402.017.122.086.19.262.21.527.01.146-.06.32-.208.522l-.09.122-.085.12c-.064.09-.106.173-.126.247-.027.087-.042.204-.043.354-.023 1.102.09 2.22.34 3.355.156.458.437.67.84.632.405-.037 2.735-1.596 6.986-4.677zm-8.562-1.99c.148 0 .27-.042.367-.126.088-.077.14-.17.152-.278.014-.11-.015-.207-.087-.288-.08-.09-.198-.14-.352-.147-.146-.01-.272.03-.377.117-.09.078-.147.175-.166.29-.02.118.01.216.083.296.083.09.21.136.38.136zm.74 1.07c-.04-.077-.118-.108-.224-.097-.104.01-.19.057-.266.14-.083.09-.114.198-.096.324.023.147.12.3.288.457.216-.17.34-.33.37-.48.023-.106 0-.22-.07-.346z"/>
      <path d="M52.787 37.55c-1.528 1.75-2.723 2.43-3.582 2.04-.292-.987-.142-2.382.45-4.185.592-1.804.802-2.947.63-3.432s-.475-.486-.906-.006c-.434.48-.654 1.23-.664 2.25-.01 1.02-.187 1.517-.53 1.488-.346-.03-.422-.774-.23-2.235.195-1.462.232-2.286.112-2.473-.12-.188-.307-.156-.563.094-.256.25-.41.54-.46.873-.05.33-.093 1.053-.125 2.17-.033 1.115-.09 1.813-.175 2.094-.083.28-.27.35-.562.21-.29-.138-.29-2.038-.002-5.7.703-.316.963-.03.782.86.38-.696.822-1.02 1.326-.972.5.048.704.38.61.994-.098.614-.142.935-.136.963.007.028.122-.15.35-.532.224-.383.575-.6 1.056-.653.478-.053.823.348 1.035 1.2.204.624.058 1.7-.44 3.228-.494 1.526-.672 2.543-.53 3.05s.97-.065 2.48-1.714c1.51-1.65 2.907-3.155 4.19-4.518s1.935-1.93 1.953-1.698c-2.516 2.654-4.54 4.856-6.07 6.606z"/>
      <path d="M66.722 30.874c.147.01.15.122.01.335-.144.213-.774.91-1.895 2.094s-2.38 2.68-3.78 4.49c.065 1.104-.01 2.193-.224 3.27-.214 1.076-.67 1.734-1.367 1.97-.696.24-1.164.09-1.402-.446-.237-.537-.295-1-.172-1.39.03-.088.073-.177.134-.268.024-.035.054-.074.087-.118l.09-.113c.157-.195.716-.936 1.673-2.223-.24-1.5-.96-3.344-2.162-5.526l-.074-.17c-.063-.145-.11-.258-.142-.336-.104-.257-.168-.47-.195-.64-.053-.342.007-.74.18-1.198.204-.533.48-.8.82-.8.33 0 .56.107.687.32.143.235.112.536-.09.902-.038.117-.103.14-.194.07 0-.06.04-.205.116-.437s.04-.43-.114-.59-.332-.194-.537-.095c-.204.1-.135.49.21 1.176.343.688.586 1.158.726 1.413.022.04.05.088.08.146l.037.064.037.064c.052.093.087.162.108.207.976 1.94 1.52 3.338 1.63 4.19 2.174-2.69 4.082-4.812 5.724-6.36zm-6.74 7.89c-.934 1.1-1.505 1.85-1.712 2.255-.207.405-.224.862-.05 1.372.172.51.507.492 1.003-.053.497-.548.75-1.74.76-3.576z"/>
      <path d="M79.21 29.552h.075c.258 0 .458.07.603.207.307.257.46.59.46 1 0 .298-.122.58-.364.84-.382.435-.648.694-.8.778-.228.178-.438.3-.63.36-.25.114-.468.17-.652.17-.194-.007-.29-.033-.29-.08-.018 0-.027-.028-.032-.09 0-.107.087-.162.26-.162.153 0 .347-.052.58-.154.196-.056.47-.23.823-.525.387-.38.592-.604.614-.677.113-.138.17-.264.17-.377v-.11c0-.23-.09-.45-.272-.66-.158-.14-.305-.208-.438-.208-.005 0-.007.002-.007.006l-.037-.005h-.09l-.036.006v-.005l-.017.005c-.382 0-.853.14-1.408.424-.353.205-.644.408-.874.607-.21.18-.376.33-.497.452-.342.328-.525.497-.55.507-.42.41-.896.907-1.43 1.488-1.224 1.362-2.3 2.652-3.224 3.872-.45.597-.92 1.24-1.41 1.934.008.17.01.295.01.37v.726c0 2.835-.31 4.73-.927 5.682-.276.385-.6.578-.974.578-.64 0-1.054-.23-1.238-.69-.055-.17-.08-.34-.08-.503v-.084c0-.428.143-1.02.43-1.778.066-.25.18-.553.342-.91.29-.586.728-1.53 1.31-2.834.042-2.798.062-4.264.062-4.395-.268.247-.638.37-1.11.37-.402 0-.662-.066-.78-.2-.39-.346-.586-1.158-.586-2.438 0-1.168.08-2.107.244-2.817.056-.202.135-.35.237-.438.037-.025.094-.037.17-.037.54 0 .877.102 1.01.303.078.13.117.27.117.417v.052c0 .278-.125.516-.376.71-.154.16-.232.27-.232.32 0 2.255.112 3.48.334 3.68.09.087.18.132.27.132h.05c.15 0 .328-.105.527-.314.143-.212.213-.52.213-.927 0-.213-.047-.668-.14-1.367-.023-.2-.036-.394-.036-.583v-.104c0-.303.07-.496.213-.578.066-.045.137-.068.21-.068h.065c.147 0 .328.078.54.232.288.266.433.865.433 1.8-.016.41-.11 2.095-.284 5.058v.006h.01c.703-.988 1.577-2.113 2.623-3.373.65-.78 1.538-1.766 2.663-2.956.822-.85 1.255-1.274 1.298-1.276.424-.39.772-.657 1.044-.8.596-.38 1.202-.568 1.813-.568zM68.647 40.487c-.658 1.363-1.057 2.21-1.2 2.543-.425 1.035-.64 1.793-.64 2.27 0 .328.105.568.313.72.062.02.105.03.133.03.168 0 .366-.145.593-.432.08-.12.16-.303.238-.55.24-.733.43-2.256.57-4.57v-.01h-.008zm-1.273-10.38c-.01.036-.02.085-.024.15.027.406.067.63.12.666.116-.21.175-.393.175-.548 0-.08-.088-.166-.265-.26 0-.005-.003-.007-.007-.007zm1.816 1.84c.106.7.25 1.513.435 2.438h.01c.053-.547.08-.984.08-1.313v-.23c0-.507-.072-.823-.216-.947-.028-.022-.065-.035-.113-.037-.053 0-.12.03-.198.088z"/>
    </g>
  </g>
</svg>
