<?xml version="1.0" encoding="utf-8"?>
<!-- Generator: Adobe Illustrator 16.0.0, SVG Export Plug-In . SVG Version: 6.00 Build 0)  -->
<!DOCTYPE svg PUBLIC "-//W3C//DTD SVG 1.1//EN" "http://www.w3.org/Graphics/SVG/1.1/DTD/svg11.dtd">
<svg version="1.1" xmlns="http://www.w3.org/2000/svg" xmlns:xlink="http://www.w3.org/1999/xlink" x="0px" y="0px" width="90px"
	 height="90px" viewBox="0 0 90 90" enable-background="new 0 0 90 90" xml:space="preserve">
<g id="star">
	<g id="XMLID_1_">
		<g>
			<path fill="#FFF200" d="M86.473,31.54c1.04,3.05-20.65,19.94-20.65,19.94s7.86,25.99,5.03,28c-2.83,2-25.7-13.11-25.7-13.11
				l12.63-38.79C57.782,27.58,85.422,28.48,86.473,31.54z"/>
			<path fill="#EC008C" d="M57.782,27.58l-12.63,38.79l-13-38.67c0,0,9.49-25.54,12.7-25.55C48.052,2.15,57.782,27.58,57.782,27.58z
				"/>
			<path fill="#00AEEF" d="M32.152,27.7l13,38.67c0,0-22.99,15.13-25.58,13.35c-2.58-1.79,4.77-28.04,4.77-28.04
				S2.612,34.61,3.502,31.93C4.402,29.25,32.152,27.7,32.152,27.7z"/>
		</g>
		<g>
		</g>
	</g>
	<g id="XMLID_2_" display="none">
		<g display="inline">
			<path fill="#00AEEF" d="M86.473,31.54c1.04,3.05-20.65,19.94-20.65,19.94s7.86,25.99,5.03,28c-2.83,2-25.7-13.11-25.7-13.11
				s-22.99,15.13-25.58,13.35c-2.58-1.79,4.77-28.04,4.77-28.04S2.612,34.61,3.502,31.93c0.9-2.68,28.65-4.23,28.65-4.23
				s9.49-25.54,12.7-25.55c3.199,0,12.93,25.43,12.93,25.43S85.422,28.48,86.473,31.54z"/>
		</g>
		<g display="inline">
		</g>
	</g>
</g>
<g id="Layer_1">
	<g id="lore">
		<path d="M26.802,45.084c-2.13,0-3.868,1.71-3.868,3.84v3.475c0,2.13,1.738,3.869,3.868,3.869c2.13,0,3.839-1.738,3.839-3.869
			v-3.475C30.641,46.794,28.932,45.084,26.802,45.084z M28.035,52.399c0,0.673-0.56,1.234-1.233,1.234s-1.233-0.561-1.233-1.234
			v-3.475c0-0.673,0.561-1.233,1.233-1.233s1.233,0.56,1.233,1.233V52.399z"/>
		<path d="M19.459,46.978v-5.119v-0.604c-0.056-0.561-0.281-1.094-1.149-1.29c0.139,0,4.596,0,4.736,0
			c-0.84,0.196-1.037,0.589-1.148,1.206v0.688v5.119v9.626h10.118l-0.141-0.393l-0.644-2.747c-0.336-1.513,1.289-2.886,2.662-2.353
			c1.093,0.42,1.121,1.99-0.084,1.99c-0.505,0-0.896-0.533-0.336-1.093c0-0.028-0.028-0.057-0.055-0.028
			c-0.673,0.251-0.59,0.756-0.337,1.402l2.213,5.55c-0.896,0-1.681,0-2.438,0c-0.336,0-0.672,0-1.037,0c-0.477,0-13.37,0-13.509,0
			c1.177-0.337,1.149-1.514,1.149-1.514V46.978z"/>
		<g>
			<path stroke="#000000" stroke-miterlimit="10" d="M77.241,57.723c0,0-0.642,0.321-1.155,1.261l-2.995,4.599
				c-1.795,2.738-4.384,4.791-7.462,5.924c-1.669,0.601-3.401,0.92-5.134,0.92c-1.476,0-2.93-0.213-4.362-0.663
				c-0.129-0.043-0.257-0.085-0.385-0.128c-5.09-1.71-9.132-5.774-10.801-10.886l-1.839-5.582c-0.234,0.235-0.471,0.491-0.685,0.771
				c-0.534,0.598-1.882,1.925-1.583,2.845c0.107,0.385,0.236-0.278,0.643-0.3c0.727-0.063,0.94,1.177,0.256,1.39
				c-0.321,0.087-0.707-0.106-0.899-0.385c-0.385-0.491-0.534-1.155-0.534-1.774c0.042-1.797,3.186-5.539,3.764-6.48
				c0.513-0.855,0.662-1.903,0.662-2.93c0-3.721-3.015-6.758-6.737-6.758c-1.946,0-4.79,0.941-5.068,3.165c0,0.022,0,0.022,0,0.022
				c-0.15-0.086-2.631-1.519-2.631-1.519c0.685-0.278,1.091-0.919,1.604-1.412c0.557-0.492,1.155-0.941,1.818-1.305
				c1.305-0.728,2.78-1.133,4.276-1.133c4.918,0,8.94,4.021,8.94,8.939c0,1.946-0.748,3.336-1.753,4.576
				c-0.129,0.15-0.236,0.3-0.364,0.449l2.202,6.759c1.455,4.448,4.983,7.998,9.41,9.473c0.129,0.044,0.235,0.087,0.343,0.108
				c5.39,1.668,11.355-0.514,14.499-5.283l1.883-2.907c0.342-0.535,0.405-1.177,0.191-1.755H77.241z M38.768,42.731v18.905
				c0,0.276,0.192,0.771,0.812,0.92h-3.806c0.684-0.172,0.813-0.685,0.813-0.984V42.646c0-0.299-0.278-0.77-0.749-0.876
				c0.085,0,3.635-0.022,3.742-0.022C38.917,41.918,38.788,42.539,38.768,42.731z"/>
		</g>
		<path d="M66.459,61.532c-0.241,2.383-1.58,4.391-3.509,5.221c-0.696,0.351-1.5,0.483-2.303,0.483c-3.428,0-5.356-2.276-6.668-5.09
			c-0.964-2.141-1.714-3.293-3.081-3.508c-0.964,0-1.739,0-1.794,0c0.938-0.213,1.152-1.632,1.152-1.713c0-0.776,0-9.962,0-9.962
			c0-0.911-0.348-1.661-1.045-1.847c0.136,0,8.651,0,8.651,0v2.812c0,0-0.321-0.643-1.232-0.643h-3.938l0.028,3.963h0.828
			c0.162,0,0.35-0.105,0.644-0.427c0,0.802,0,1.605,0,2.437c-0.294-0.375-0.456-0.456-0.616-0.456h-0.855l-0.028,3.883
			c1.93,0.908,2.813,3.026,3.509,4.498c0.963,2.303,3.079,4.606,5.784,3.399c1.338-0.613,1.981-2.088,2.089-3.293
			c0.134-1.688-0.563-3.774-2.544-4.258c-1.099-0.24-2.197-0.106-3.239,0.537c-0.35,0.239-0.75,0.938-0.831,1.606l-1.981-2.625
			c0.214-0.214,0.535-0.214,0.776-0.401c1.767-1.526,3.775-1.956,5.892-1.419C65.012,55.426,66.752,58.237,66.459,61.532z"/>
	</g>
	<path id="and" d="M22.606,42.448h-0.92h-2.412h-2.538c0-1.516,0-2.827,0-3.239c0-0.069,0.185-1.242,1.041-1.448
		c-0.111,0-4.166,0-4.313,0c0.855,0.207,1.115,1.345,1.115,1.448l-0.037,3.202h-3.532H9.521v0.024c0,0.62,0,1.426,0,2.042
		l5.005,4.618c0.655,0,1.514,0,2.185,0h0.024v-1.377c0-0.62,0-1.896,0-3.24c0.963,0,1.859,0,2.516,0h2.413c0.434,0,0.765,0,0.942,0
		c0.111,0,1.337,0.174,1.561,0.966c0-0.105,0-3.894,0-3.995C23.943,42.207,22.717,42.448,22.606,42.448z M14.541,47.086
		l-0.001-0.001l-2.813-2.605v-0.001c0.732,0,1.744,0,2.814,0V47.086z"/>
	<g id="whimsy">
		<path stroke="#000000" stroke-width="0.4252" stroke-miterlimit="10" d="M12.608,18.511h0.089c0.056,0,0.142,0.003,0.26,0.01
			v0.006c0.004,0,0.006-0.002,0.006-0.006c0.363,0.035,0.612,0.074,0.748,0.117c0.363,0.12,0.696,0.285,1.001,0.498
			c0.191,0.124,0.414,0.316,0.667,0.578c0.401,0.472,0.603,0.933,0.603,1.381v0.111c0,0.552-0.131,0.969-0.393,1.251
			c-0.008,0.031-0.085,0.115-0.232,0.254c-0.229,0.195-0.557,0.407-0.985,0.636c-0.352,0.193-0.723,0.464-1.112,0.81
			c-0.368,0.346-0.596,0.596-0.682,0.747c-0.179,0.264-0.31,0.509-0.393,0.735c-0.144,0.385-0.216,0.733-0.216,1.045
			c0,0.564,0.045,1.021,0.136,1.371c0.237,0.973,0.58,1.867,1.029,2.685c0.188,0.364,0.435,0.74,0.742,1.128
			c0.234,0.292,0.526,0.486,0.874,0.583c0.113,0.031,0.228,0.047,0.343,0.047c0.274,0,0.541-0.144,0.8-0.43
			c0.232-0.296,0.349-0.519,0.349-0.667c0.062-0.221,0.143-0.367,0.244-0.438c0.072-0.035,0.189-0.054,0.349-0.054
			c0.231,0,0.389,0.054,0.473,0.158c0.055,0.109,0.115,0.376,0.179,0.801c0.031,0.14,0.053,1.225,0.068,3.252
			c0.043,0.709,0.112,1.107,0.207,1.195c0.024,0.039,0.062,0.064,0.111,0.074c0.103,0,0.208-0.113,0.318-0.342
			c0.063-0.143,0.125-0.367,0.185-0.674c0.05-0.358,0.113-0.962,0.192-1.811c0.066-0.471,0.131-0.777,0.194-0.917
			c0.122-0.253,0.235-0.38,0.34-0.38c0.564,0.105,0.846,0.164,0.846,0.179c0.117,0.251,0.246,1.022,0.386,2.313
			c0.125,1.402,0.221,2.268,0.287,2.596c0.022,0.082,0.042,0.124,0.059,0.126h0.009c0.082,0,0.162-0.937,0.238-2.812
			c0.042-0.489,0.097-0.902,0.16-1.238c0.105-0.455,0.216-0.809,0.334-1.059c0.319-0.629,0.732-0.943,1.238-0.943h0.096
			c0.039,0,0.335,0.037,0.89,0.111c0.286,0.035,0.576,0.053,0.868,0.053c0.62,0,1.142-0.105,1.566-0.318
			c0.674-0.277,1.061-0.417,1.162-0.417h0.037c0.01,0.002,0.021,0.015,0.031,0.037c-0.027,0.093-0.111,0.183-0.253,0.269
			c-0.908,0.509-1.74,0.764-2.496,0.764h-0.126c-0.245,0-0.604-0.035-1.075-0.105h-0.231c-0.511,0-0.913,0.238-1.208,0.714
			c-0.088,0.147-0.17,0.341-0.244,0.577c-0.084,0.293-0.168,0.74-0.253,1.341c-0.124,1.229-0.186,2.159-0.186,2.79
			c-0.017,0.667-0.043,1.052-0.081,1.155c0,0.104-0.066,0.288-0.201,0.55c-0.204,0.311-0.49,0.467-0.859,0.467
			c-0.296,0-0.492-0.148-0.587-0.445c-0.109-0.52-0.242-2.21-0.398-5.072c-0.025-0.518-0.045-0.809-0.062-0.875
			c-0.024-0.049-0.037-0.083-0.037-0.102H19c-0.091,0.408-0.202,1.248-0.334,2.521c-0.049,0.271-0.111,0.51-0.186,0.717
			c-0.236,0.588-0.612,0.883-1.127,0.883c-0.146,0-0.324-0.029-0.534-0.09c-0.127-0.092-0.232-0.279-0.312-0.563
			c-0.06-0.17-0.127-0.571-0.201-1.201c-0.107-1.159-0.16-2.066-0.16-2.722V32.4c-0.282,0.296-0.594,0.444-0.936,0.444
			c-0.324,0-0.689-0.129-1.097-0.386c-0.299-0.247-0.523-0.481-0.674-0.704c-0.461-0.633-0.884-1.429-1.27-2.389
			c-0.168-0.432-0.319-0.938-0.451-1.514c-0.084-0.407-0.126-0.84-0.126-1.297c0-0.805,0.284-1.555,0.853-2.246
			c0.307-0.336,0.531-0.555,0.673-0.658c0.371-0.305,0.766-0.569,1.187-0.793c0.258-0.131,0.517-0.309,0.778-0.535
			c0.196-0.21,0.325-0.402,0.386-0.578c0.07-0.164,0.105-0.414,0.105-0.75c0-0.369-0.118-0.697-0.355-0.985
			c-0.193-0.245-0.409-0.456-0.645-0.63c-0.204-0.146-0.409-0.263-0.615-0.349c-0.339-0.157-0.745-0.235-1.217-0.235
			c-0.439,0-0.691,0.136-0.757,0.408c-0.004,0.004-0.006,0.023-0.006,0.059v0.074c0,0.14,0.088,0.266,0.266,0.377l0.238,0.067
			c0.039,0.035,0.059,0.068,0.059,0.096c0,0.068-0.042,0.107-0.127,0.117h-0.021c-0.146,0-0.319-0.105-0.519-0.317
			c-0.124-0.169-0.186-0.325-0.186-0.466v-0.043c0-0.303,0.173-0.503,0.519-0.603C12.324,18.528,12.458,18.511,12.608,18.511z"/>
		<path stroke="#000000" stroke-width="0.4252" stroke-miterlimit="10" d="M37.745,31.019c-0.062,0.094-0.437,0.417-1.123,0.973
			c-0.687,0.555-1.446,1.204-2.28,1.947c-0.833,0.744-1.542,1.65-2.128,2.719c-0.586,1.068-0.977,1.749-1.173,2.041
			c-0.196,0.293-0.583,0.363-1.163,0.213c-0.58-0.152-0.871-1.598-0.874-4.338c-0.003-2.74-0.144-4.316-0.423-4.729
			s-0.502,0.036-0.668,1.349c-0.027,0.225-0.052,0.481-0.074,0.771c-0.008,0.116-0.017,0.242-0.025,0.377
			c-0.005,0.902-0.013,1.424-0.021,1.564c-0.029,0.522-0.053,0.813-0.074,0.867c-0.143,0.375-0.296,0.549-0.464,0.521
			c-0.158-0.025-0.284-0.221-0.376-0.583c-0.107-0.422-0.163-1.942-0.167-4.56c-0.004-1.52,0.041-2.646,0.133-3.377
			c0.006-0.058,0.018-0.178,0.034-0.361l0.006-0.059l0.006-0.064c0.004-0.054,0.007-0.1,0.009-0.137
			c0.01-0.111,0.02-0.212,0.028-0.303c0.054-0.558,0.112-1.035,0.176-1.434c0.208-1.264,0.496-1.896,0.865-1.896
			c-0.004,0,0.003,0.005,0.021,0.013c0.017,0.007,0.038,0.015,0.065,0.024h0.003c0.498,0.241,0.663,0.766,0.494,1.576
			c-0.053,0.258-0.3,1.596-0.741,4.016c-0.031,0.932-0.021,1.617,0.031,2.061c0.054-0.585,0.474-0.879,1.26-0.882
			s1.168,2.938,1.146,8.824c0.167,0.721,0.524,0.479,1.07-0.724c0.547-1.202,1.26-2.237,2.14-3.105s1.748-1.647,2.605-2.339
			c0.857-0.69,1.287-1.036,1.287-1.036s0.082-0.012,0.244-0.035C37.757,30.89,37.807,30.925,37.745,31.019z M28.023,22.765
			c-0.076,0.059-0.11,0.432-0.102,1.121l-0.225,3.39c0.327-1.578,0.537-2.552,0.63-2.923c0.086-0.342,0.124-0.608,0.111-0.8
			c-0.015-0.232-0.083-0.436-0.207-0.608c-0.043-0.061-0.088-0.108-0.133-0.146C28.059,22.769,28.034,22.757,28.023,22.765z
			 M27.968,22.521c0.103,0.039,0.039,0.02,0.021,0.013C27.971,22.525,27.964,22.521,27.968,22.521z"/>
		<path stroke="#000000" stroke-width="0.4252" stroke-miterlimit="10" d="M46.23,31.025c0.497-0.109,0.07,0.312-1.278,1.264
			s-2.729,1.915-4.14,2.894c-1.411,0.977-2.392,1.256-2.944,0.838c-0.202-0.232-0.384-0.646-0.546-1.242
			c-0.128-0.465-0.225-1.037-0.291-1.717c-0.024-0.262-0.042-0.522-0.056-0.781c-0.012-0.219-0.008-0.463,0.011-0.731
			s0.113-0.6,0.279-0.993c0.064-0.152,0.166-0.301,0.306-0.445c0.145-0.147,0.289-0.251,0.433-0.309
			c0.163-0.065,0.297-0.061,0.402,0.016c0.122,0.087,0.191,0.263,0.21,0.528c0.011,0.146-0.059,0.32-0.208,0.522l-0.089,0.123
			l-0.086,0.121c-0.064,0.09-0.106,0.172-0.126,0.246c-0.027,0.088-0.042,0.205-0.043,0.355c-0.023,1.102,0.09,2.221,0.34,3.355
			c0.156,0.459,0.437,0.67,0.841,0.633C39.649,35.665,41.979,34.106,46.23,31.025z M37.668,29.036c0.148,0,0.271-0.043,0.367-0.127
			c0.088-0.076,0.139-0.168,0.152-0.277c0.014-0.111-0.015-0.207-0.087-0.288c-0.08-0.091-0.198-0.14-0.352-0.147
			c-0.146-0.009-0.272,0.031-0.377,0.117c-0.092,0.078-0.148,0.175-0.167,0.29c-0.019,0.118,0.009,0.216,0.083,0.296
			C37.37,28.991,37.497,29.036,37.668,29.036z M38.409,30.104c-0.042-0.076-0.119-0.107-0.225-0.096
			c-0.104,0.011-0.191,0.057-0.266,0.139c-0.083,0.092-0.114,0.199-0.096,0.325c0.023,0.147,0.119,0.301,0.288,0.457
			c0.216-0.169,0.34-0.329,0.371-0.479C38.503,30.344,38.479,30.229,38.409,30.104z"/>
		<path stroke="#000000" stroke-width="0.4252" stroke-miterlimit="10" d="M52.787,37.55c-1.528,1.75-2.723,2.43-3.582,2.039
			c-0.292-0.986-0.142-2.381,0.45-4.184c0.592-1.804,0.802-2.947,0.63-3.432s-0.475-0.486-0.906-0.006
			c-0.433,0.48-0.653,1.23-0.663,2.25c-0.009,1.021-0.187,1.517-0.531,1.488c-0.345-0.029-0.421-0.774-0.228-2.235
			c0.194-1.462,0.231-2.286,0.111-2.473c-0.119-0.188-0.307-0.156-0.563,0.094c-0.256,0.25-0.409,0.54-0.46,0.872
			c-0.051,0.33-0.093,1.053-0.125,2.169c-0.033,1.116-0.091,1.814-0.175,2.095c-0.083,0.28-0.271,0.351-0.562,0.211
			c-0.29-0.139-0.291-2.039-0.002-5.7c0.702-0.317,0.962-0.03,0.781,0.858c0.381-0.695,0.822-1.02,1.326-0.971
			c0.501,0.048,0.704,0.379,0.609,0.994c-0.097,0.615-0.141,0.936-0.135,0.964c0.007,0.028,0.122-0.149,0.349-0.532
			c0.225-0.384,0.576-0.602,1.057-0.654c0.478-0.053,0.823,0.348,1.035,1.2c0.204,0.624,0.058,1.7-0.439,3.228
			c-0.495,1.526-0.673,2.543-0.53,3.05s0.969-0.065,2.479-1.714c1.511-1.65,2.907-3.156,4.19-4.519s1.935-1.929,1.953-1.698
			C56.34,33.598,54.316,35.8,52.787,37.55z"/>
		<path stroke="#000000" stroke-width="0.4252" stroke-miterlimit="10" d="M66.722,30.874c0.147,0.011,0.151,0.122,0.009,0.335
			c-0.143,0.214-0.773,0.911-1.894,2.095s-2.381,2.68-3.781,4.49c0.066,1.104-0.008,2.193-0.223,3.27
			c-0.214,1.076-0.67,1.734-1.367,1.971c-0.696,0.238-1.164,0.089-1.402-0.447c-0.237-0.537-0.295-1-0.172-1.389
			c0.029-0.089,0.073-0.178,0.134-0.269c0.024-0.035,0.054-0.074,0.087-0.118l0.089-0.113c0.158-0.194,0.717-0.935,1.674-2.222
			c-0.24-1.501-0.961-3.344-2.162-5.526l-0.074-0.17c-0.063-0.146-0.11-0.259-0.142-0.337c-0.104-0.257-0.168-0.471-0.195-0.64
			c-0.053-0.342,0.007-0.741,0.18-1.198c0.204-0.533,0.479-0.8,0.821-0.8c0.33,0,0.559,0.107,0.686,0.32
			c0.143,0.235,0.112,0.536-0.089,0.902c-0.039,0.117-0.104,0.141-0.195,0.071c0-0.06,0.039-0.206,0.116-0.438
			s0.039-0.43-0.114-0.592s-0.332-0.193-0.537-0.094c-0.205,0.099-0.136,0.49,0.208,1.176c0.344,0.687,0.587,1.157,0.727,1.412
			c0.022,0.039,0.049,0.088,0.08,0.146l0.037,0.065l0.037,0.064c0.052,0.093,0.087,0.162,0.108,0.207
			c0.976,1.939,1.52,3.338,1.631,4.191C63.172,34.544,65.08,32.423,66.722,30.874z M59.983,38.764
			c-0.935,1.099-1.506,1.85-1.713,2.255c-0.207,0.406-0.224,0.863-0.051,1.373c0.173,0.511,0.508,0.492,1.004-0.053
			C59.72,41.792,59.974,40.601,59.983,38.764z"/>
		<path stroke="#000000" stroke-width="0.4252" stroke-miterlimit="10" d="M79.211,29.552h0.074c0.258,0,0.458,0.069,0.603,0.207
			c0.307,0.258,0.46,0.592,0.46,1.001c0,0.298-0.122,0.579-0.364,0.841c-0.382,0.434-0.648,0.693-0.801,0.777
			c-0.227,0.178-0.437,0.299-0.63,0.361c-0.249,0.113-0.467,0.17-0.651,0.17c-0.194-0.008-0.291-0.034-0.291-0.08
			c-0.017,0-0.026-0.029-0.031-0.09c0-0.108,0.087-0.163,0.261-0.163c0.152,0,0.346-0.052,0.58-0.154
			c0.195-0.056,0.47-0.231,0.822-0.525c0.387-0.379,0.592-0.604,0.614-0.677c0.113-0.138,0.17-0.264,0.17-0.377v-0.111
			c0-0.229-0.091-0.449-0.272-0.66c-0.158-0.139-0.305-0.207-0.438-0.207c-0.005,0-0.007,0.002-0.007,0.006l-0.037-0.006h-0.09
			l-0.036,0.006v-0.006L79.13,29.87c-0.382,0-0.853,0.141-1.408,0.424c-0.353,0.205-0.644,0.408-0.874,0.607
			c-0.211,0.178-0.376,0.328-0.497,0.451c-0.343,0.328-0.526,0.497-0.55,0.507c-0.42,0.412-0.897,0.908-1.431,1.489
			C73.146,34.71,72.071,36,71.146,37.22c-0.449,0.597-0.919,1.241-1.409,1.934c0.007,0.17,0.009,0.295,0.009,0.371v0.725
			c0,2.835-0.309,4.729-0.927,5.682c-0.275,0.385-0.6,0.578-0.973,0.578c-0.641,0-1.054-0.23-1.238-0.689
			c-0.055-0.172-0.081-0.341-0.081-0.504v-0.084c0-0.428,0.144-1.021,0.43-1.778c0.067-0.249,0.182-0.553,0.343-0.911
			c0.291-0.585,0.728-1.529,1.31-2.833c0.042-2.799,0.062-4.265,0.062-4.396c-0.268,0.247-0.638,0.371-1.111,0.371
			c-0.401,0-0.661-0.067-0.779-0.201c-0.391-0.346-0.586-1.158-0.586-2.438c0-1.168,0.081-2.107,0.244-2.817
			c0.056-0.202,0.135-0.349,0.237-0.438c0.037-0.025,0.094-0.037,0.17-0.037c0.54,0,0.877,0.102,1.011,0.303
			c0.077,0.129,0.116,0.269,0.116,0.417v0.052c0,0.278-0.125,0.516-0.376,0.711c-0.154,0.16-0.232,0.268-0.232,0.318
			c0,2.256,0.112,3.481,0.334,3.68c0.091,0.088,0.181,0.133,0.269,0.133h0.05c0.152,0,0.329-0.104,0.528-0.313
			c0.143-0.212,0.213-0.521,0.213-0.927c0-0.212-0.047-0.667-0.139-1.366c-0.024-0.199-0.037-0.394-0.037-0.583v-0.104
			c0-0.303,0.071-0.496,0.213-0.578c0.066-0.045,0.137-0.068,0.211-0.068h0.064c0.147,0,0.328,0.078,0.54,0.232
			c0.288,0.266,0.433,0.865,0.433,1.801c-0.016,0.408-0.111,2.094-0.284,5.057v0.006h0.009c0.703-0.988,1.577-2.113,2.623-3.373
			c0.651-0.781,1.538-1.766,2.663-2.956c0.822-0.849,1.255-1.274,1.298-1.276c0.424-0.391,0.772-0.658,1.044-0.8
			C77.994,29.74,78.6,29.552,79.211,29.552z M68.646,40.487c-0.658,1.363-1.057,2.211-1.199,2.543
			c-0.426,1.035-0.64,1.793-0.64,2.27c0,0.328,0.104,0.568,0.312,0.721c0.063,0.018,0.106,0.028,0.134,0.028
			c0.168,0,0.366-0.144,0.593-0.431c0.08-0.119,0.159-0.303,0.238-0.549c0.239-0.734,0.429-2.257,0.571-4.572v-0.01H68.646z
			 M67.373,30.108c-0.01,0.035-0.019,0.084-0.024,0.148c0.028,0.407,0.068,0.63,0.12,0.667c0.117-0.21,0.176-0.393,0.176-0.548
			c0-0.08-0.088-0.166-0.265-0.259C67.38,30.11,67.377,30.108,67.373,30.108z M69.189,31.946c0.107,0.7,0.252,1.514,0.436,2.439
			h0.01c0.053-0.547,0.08-0.984,0.08-1.313v-0.229c0-0.508-0.072-0.824-0.216-0.948c-0.027-0.022-0.064-0.035-0.112-0.037
			C69.334,31.859,69.268,31.888,69.189,31.946z"/>
	</g>
</g>
</svg>
